<svg xmlns="http://www.w3.org/2000/svg" width="2166" height="332" viewBox="0 0 2166 332" role="img" aria-label="Recommended schedule for global-exec-demo"><rect width="100%" height="100%" fill="#f8fafc" /><text x="32" y="34" font-family="Helvetica, Arial, sans-serif" font-size="22" font-weight="700" fill="#0f172a">Recommended schedule for global-exec-demo</text><text x="32" y="56" font-family="Helvetica, Arial, sans-serif" font-size="13" fill="#334155">Recommended strategy: timing_fair_only. Grey = standard local work hours (09:00-17:00). Blue = chosen overlap blocks.</text><rect x="32.0" y="72.0" width="682.0" height="260.0" rx="12" fill="#ffffff" stroke="#cbd5e1" /><text x="48.0" y="96.0" font-family="Helvetica, Arial, sans-serif" font-size="16" font-weight="700" fill="#0f172a">Week 1</text><text x="48.0" y="116.0" font-family="Helvetica, Arial, sans-serif" font-size="13" fill="#475569">UTC pattern: 09:00-12:00, 15:00-18:00</text><line x1="282.0" y1="126.0" x2="282.0" y2="312.0" stroke="#cbd5e1" stroke-width="1" /><text x="284.0" y="140.0" font-family="Helvetica, Arial, sans-serif" font-size="11" fill="#64748b">00</text><line x1="300.0" y1="126.0" x2="300.0" y2="312.0" stroke="#e2e8f0" stroke-width="1" /><text x="302.0" y="140.0" font-family="Helvetica, Arial, sans-serif" font-size="11" fill="#64748b">01</text><line x1="318.0" y1="126.0" x2="318.0" y2="312.0" stroke="#e2e8f0" stroke-width="1" /><text x="320.0" y="140.0" font-family="Helvetica, Arial, sans-serif" font-size="11" fill="#64748b">02</text><line x1="336.0" y1="126.0" x2="336.0" y2="312.0" stroke="#cbd5e1" stroke-width="1" /><text x="338.0" y="140.0" font-family="Helvetica, Arial, sans-serif" font-size="11" fill="#64748b">03</text><line x1="354.0" y1="126.0" x2="354.0" y2="312.0" stroke="#e2e8f0" stroke-width="1" /><text x="356.0" y="140.0" font-family="Helvetica, Arial, sans-serif" font-size="11" fill="#64748b">04</text><line x1="372.0" y1="126.0" x2="372.0" y2="312.0" stroke="#e2e8f0" stroke-width="1" /><text x="374.0" y="140.0" font-family="Helvetica, Arial, sans-serif" font-size="11" fill="#64748b">05</text><line x1="390.0" y1="126.0" x2="390.0" y2="312.0" stroke="#cbd5e1" stroke-width="1" /><text x="392.0" y="140.0" font-family="Helvetica, Arial, sans-serif" font-size="11" fill="#64748b">06</text><line x1="408.0" y1="126.0" x2="408.0" y2="312.0" stroke="#e2e8f0" stroke-width="1" /><text x="410.0" y="140.0" font-family="Helvetica, Arial, sans-serif" font-size="11" fill="#64748b">07</text><line x1="426.0" y1="126.0" x2="426.0" y2="312.0" stroke="#e2e8f0" stroke-width="1" /><text x="428.0" y="140.0" font-family="Helvetica, Arial, sans-serif" font-size="11" fill="#64748b">08</text><line x1="444.0" y1="126.0" x2="444.0" y2="312.0" stroke="#cbd5e1" stroke-width="1" /><text x="446.0" y="140.0" font-family="Helvetica, Arial, sans-serif" font-size="11" fill="#64748b">09</text><line x1="462.0" y1="126.0" x2="462.0" y2="312.0" stroke="#e2e8f0" stroke-width="1" /><text x="464.0" y="140.0" font-family="Helvetica, Arial, sans-serif" font-size="11" fill="#64748b">10</text><line x1="480.0" y1="126.0" x2="480.0" y2="312.0" stroke="#e2e8f0" stroke-width="1" /><text x="482.0" y="140.0" font-family="Helvetica, Arial, sans-serif" font-size="11" fill="#64748b">11</text><line x1="498.0" y1="126.0" x2="498.0" y2="312.0" stroke="#cbd5e1" stroke-width="1" /><text x="500.0" y="140.0" font-family="Helvetica, Arial, sans-serif" font-size="11" fill="#64748b">12</text><line x1="516.0" y1="126.0" x2="516.0" y2="312.0" stroke="#e2e8f0" stroke-width="1" /><text x="518.0" y="140.0" font-family="Helvetica, Arial, sans-serif" font-size="11" fill="#64748b">13</text><line x1="534.0" y1="126.0" x2="534.0" y2="312.0" stroke="#e2e8f0" stroke-width="1" /><text x="536.0" y="140.0" font-family="Helvetica, Arial, sans-serif" font-size="11" fill="#64748b">14</text><line x1="552.0" y1="126.0" x2="552.0" y2="312.0" stroke="#cbd5e1" stroke-width="1" /><text x="554.0" y="140.0" font-family="Helvetica, Arial, sans-serif" font-size="11" fill="#64748b">15</text><line x1="570.0" y1="126.0" x2="570.0" y2="312.0" stroke="#e2e8f0" stroke-width="1" /><text x="572.0" y="140.0" font-family="Helvetica, Arial, sans-serif" font-size="11" fill="#64748b">16</text><line x1="588.0" y1="126.0" x2="588.0" y2="312.0" stroke="#e2e8f0" stroke-width="1" /><text x="590.0" y="140.0" font-family="Helvetica, Arial, sans-serif" font-size="11" fill="#64748b">17</text><line x1="606.0" y1="126.0" x2="606.0" y2="312.0" stroke="#cbd5e1" stroke-width="1" /><text x="608.0" y="140.0" font-family="Helvetica, Arial, sans-serif" font-size="11" fill="#64748b">18</text><line x1="624.0" y1="126.0" x2="624.0" y2="312.0" stroke="#e2e8f0" stroke-width="1" /><text x="626.0" y="140.0" font-family="Helvetica, Arial, sans-serif" font-size="11" fill="#64748b">19</text><line x1="642.0" y1="126.0" x2="642.0" y2="312.0" stroke="#e2e8f0" stroke-width="1" /><text x="644.0" y="140.0" font-family="Helvetica, Arial, sans-serif" font-size="11" fill="#64748b">20</text><line x1="660.0" y1="126.0" x2="660.0" y2="312.0" stroke="#cbd5e1" stroke-width="1" /><text x="662.0" y="140.0" font-family="Helvetica, Arial, sans-serif" font-size="11" fill="#64748b">21</text><line x1="678.0" y1="126.0" x2="678.0" y2="312.0" stroke="#e2e8f0" stroke-width="1" /><text x="680.0" y="140.0" font-family="Helvetica, Arial, sans-serif" font-size="11" fill="#64748b">22</text><line x1="696.0" y1="126.0" x2="696.0" y2="312.0" stroke="#e2e8f0" stroke-width="1" /><text x="698.0" y="140.0" font-family="Helvetica, Arial, sans-serif" font-size="11" fill="#64748b">23</text><line x1="714.0" y1="126.0" x2="714.0" y2="312.0" stroke="#cbd5e1" stroke-width="1" /><text x="48.0" y="134.0" font-family="Helvetica, Arial, sans-serif" font-size="12" fill="#0f172a">Seattle (UTC-08:00, standard 09:00-17:00)</text><rect x="282.0" y="116.0" width="432.0" height="28.0" fill="#ffffff" stroke="#cbd5e1" rx="4" /><rect x="444.0" y="116.0" width="144.0" height="28.0" fill="#d1d5db" fill-opacity="1.0" rx="4" /><rect x="498.0" y="119.0" width="36.0" height="22.0" fill="#fecaca" fill-opacity="0.55" stroke="#ef4444" stroke-width="1" rx="4" /><rect x="300.0" y="120.0" width="54.0" height="20.0" fill="#2563eb" fill-opacity="0.95" stroke="#1d4ed8" stroke-width="1" rx="4" /><rect x="408.0" y="120.0" width="54.0" height="20.0" fill="#2563eb" fill-opacity="0.95" stroke="#1d4ed8" stroke-width="1" rx="4" /><text x="48.0" y="172.0" font-family="Helvetica, Arial, sans-serif" font-size="12" fill="#0f172a">New York (UTC-05:00, standard 09:00-17:00)</text><rect x="282.0" y="154.0" width="432.0" height="28.0" fill="#ffffff" stroke="#cbd5e1" rx="4" /><rect x="444.0" y="154.0" width="144.0" height="28.0" fill="#d1d5db" fill-opacity="1.0" rx="4" /><rect x="498.0" y="157.0" width="36.0" height="22.0" fill="#fecaca" fill-opacity="0.55" stroke="#ef4444" stroke-width="1" rx="4" /><rect x="354.0" y="158.0" width="54.0" height="20.0" fill="#2563eb" fill-opacity="0.95" stroke="#1d4ed8" stroke-width="1" rx="4" /><rect x="462.0" y="158.0" width="54.0" height="20.0" fill="#2563eb" fill-opacity="0.95" stroke="#1d4ed8" stroke-width="1" rx="4" /><text x="48.0" y="210.0" font-family="Helvetica, Arial, sans-serif" font-size="12" fill="#0f172a">London (UTC+00:00, standard 09:00-17:00)</text><rect x="282.0" y="192.0" width="432.0" height="28.0" fill="#ffffff" stroke="#cbd5e1" rx="4" /><rect x="444.0" y="192.0" width="144.0" height="28.0" fill="#d1d5db" fill-opacity="1.0" rx="4" /><rect x="498.0" y="195.0" width="36.0" height="22.0" fill="#fecaca" fill-opacity="0.55" stroke="#ef4444" stroke-width="1" rx="4" /><rect x="444.0" y="196.0" width="54.0" height="20.0" fill="#2563eb" fill-opacity="0.95" stroke="#1d4ed8" stroke-width="1" rx="4" /><rect x="552.0" y="196.0" width="54.0" height="20.0" fill="#2563eb" fill-opacity="0.95" stroke="#1d4ed8" stroke-width="1" rx="4" /><text x="48.0" y="248.0" font-family="Helvetica, Arial, sans-serif" font-size="12" fill="#0f172a">Singapore (UTC+08:00, standard 09:00-17:00)</text><rect x="282.0" y="230.0" width="432.0" height="28.0" fill="#ffffff" stroke="#cbd5e1" rx="4" /><rect x="444.0" y="230.0" width="144.0" height="28.0" fill="#d1d5db" fill-opacity="1.0" rx="4" /><rect x="498.0" y="233.0" width="36.0" height="22.0" fill="#fecaca" fill-opacity="0.55" stroke="#ef4444" stroke-width="1" rx="4" /><rect x="282.0" y="234.0" width="36.0" height="20.0" fill="#2563eb" fill-opacity="0.95" stroke="#1d4ed8" stroke-width="1" rx="4" /><rect x="588.0" y="234.0" width="54.0" height="20.0" fill="#2563eb" fill-opacity="0.95" stroke="#1d4ed8" stroke-width="1" rx="4" /><rect x="696.0" y="234.0" width="18.0" height="20.0" fill="#2563eb" fill-opacity="0.95" stroke="#1d4ed8" stroke-width="1" rx="4" /><rect x="742.0" y="72.0" width="682.0" height="260.0" rx="12" fill="#ffffff" stroke="#cbd5e1" /><text x="758.0" y="96.0" font-family="Helvetica, Arial, sans-serif" font-size="16" font-weight="700" fill="#0f172a">Week 2</text><text x="758.0" y="116.0" font-family="Helvetica, Arial, sans-serif" font-size="13" fill="#475569">UTC pattern: 09:00-12:00, 15:00-18:00</text><line x1="992.0" y1="126.0" x2="992.0" y2="312.0" stroke="#cbd5e1" stroke-width="1" /><text x="994.0" y="140.0" font-family="Helvetica, Arial, sans-serif" font-size="11" fill="#64748b">00</text><line x1="1010.0" y1="126.0" x2="1010.0" y2="312.0" stroke="#e2e8f0" stroke-width="1" /><text x="1012.0" y="140.0" font-family="Helvetica, Arial, sans-serif" font-size="11" fill="#64748b">01</text><line x1="1028.0" y1="126.0" x2="1028.0" y2="312.0" stroke="#e2e8f0" stroke-width="1" /><text x="1030.0" y="140.0" font-family="Helvetica, Arial, sans-serif" font-size="11" fill="#64748b">02</text><line x1="1046.0" y1="126.0" x2="1046.0" y2="312.0" stroke="#cbd5e1" stroke-width="1" /><text x="1048.0" y="140.0" font-family="Helvetica, Arial, sans-serif" font-size="11" fill="#64748b">03</text><line x1="1064.0" y1="126.0" x2="1064.0" y2="312.0" stroke="#e2e8f0" stroke-width="1" /><text x="1066.0" y="140.0" font-family="Helvetica, Arial, sans-serif" font-size="11" fill="#64748b">04</text><line x1="1082.0" y1="126.0" x2="1082.0" y2="312.0" stroke="#e2e8f0" stroke-width="1" /><text x="1084.0" y="140.0" font-family="Helvetica, Arial, sans-serif" font-size="11" fill="#64748b">05</text><line x1="1100.0" y1="126.0" x2="1100.0" y2="312.0" stroke="#cbd5e1" stroke-width="1" /><text x="1102.0" y="140.0" font-family="Helvetica, Arial, sans-serif" font-size="11" fill="#64748b">06</text><line x1="1118.0" y1="126.0" x2="1118.0" y2="312.0" stroke="#e2e8f0" stroke-width="1" /><text x="1120.0" y="140.0" font-family="Helvetica, Arial, sans-serif" font-size="11" fill="#64748b">07</text><line x1="1136.0" y1="126.0" x2="1136.0" y2="312.0" stroke="#e2e8f0" stroke-width="1" /><text x="1138.0" y="140.0" font-family="Helvetica, Arial, sans-serif" font-size="11" fill="#64748b">08</text><line x1="1154.0" y1="126.0" x2="1154.0" y2="312.0" stroke="#cbd5e1" stroke-width="1" /><text x="1156.0" y="140.0" font-family="Helvetica, Arial, sans-serif" font-size="11" fill="#64748b">09</text><line x1="1172.0" y1="126.0" x2="1172.0" y2="312.0" stroke="#e2e8f0" stroke-width="1" /><text x="1174.0" y="140.0" font-family="Helvetica, Arial, sans-serif" font-size="11" fill="#64748b">10</text><line x1="1190.0" y1="126.0" x2="1190.0" y2="312.0" stroke="#e2e8f0" stroke-width="1" /><text x="1192.0" y="140.0" font-family="Helvetica, Arial, sans-serif" font-size="11" fill="#64748b">11</text><line x1="1208.0" y1="126.0" x2="1208.0" y2="312.0" stroke="#cbd5e1" stroke-width="1" /><text x="1210.0" y="140.0" font-family="Helvetica, Arial, sans-serif" font-size="11" fill="#64748b">12</text><line x1="1226.0" y1="126.0" x2="1226.0" y2="312.0" stroke="#e2e8f0" stroke-width="1" /><text x="1228.0" y="140.0" font-family="Helvetica, Arial, sans-serif" font-size="11" fill="#64748b">13</text><line x1="1244.0" y1="126.0" x2="1244.0" y2="312.0" stroke="#e2e8f0" stroke-width="1" /><text x="1246.0" y="140.0" font-family="Helvetica, Arial, sans-serif" font-size="11" fill="#64748b">14</text><line x1="1262.0" y1="126.0" x2="1262.0" y2="312.0" stroke="#cbd5e1" stroke-width="1" /><text x="1264.0" y="140.0" font-family="Helvetica, Arial, sans-serif" font-size="11" fill="#64748b">15</text><line x1="1280.0" y1="126.0" x2="1280.0" y2="312.0" stroke="#e2e8f0" stroke-width="1" /><text x="1282.0" y="140.0" font-family="Helvetica, Arial, sans-serif" font-size="11" fill="#64748b">16</text><line x1="1298.0" y1="126.0" x2="1298.0" y2="312.0" stroke="#e2e8f0" stroke-width="1" /><text x="1300.0" y="140.0" font-family="Helvetica, Arial, sans-serif" font-size="11" fill="#64748b">17</text><line x1="1316.0" y1="126.0" x2="1316.0" y2="312.0" stroke="#cbd5e1" stroke-width="1" /><text x="1318.0" y="140.0" font-family="Helvetica, Arial, sans-serif" font-size="11" fill="#64748b">18</text><line x1="1334.0" y1="126.0" x2="1334.0" y2="312.0" stroke="#e2e8f0" stroke-width="1" /><text x="1336.0" y="140.0" font-family="Helvetica, Arial, sans-serif" font-size="11" fill="#64748b">19</text><line x1="1352.0" y1="126.0" x2="1352.0" y2="312.0" stroke="#e2e8f0" stroke-width="1" /><text x="1354.0" y="140.0" font-family="Helvetica, Arial, sans-serif" font-size="11" fill="#64748b">20</text><line x1="1370.0" y1="126.0" x2="1370.0" y2="312.0" stroke="#cbd5e1" stroke-width="1" /><text x="1372.0" y="140.0" font-family="Helvetica, Arial, sans-serif" font-size="11" fill="#64748b">21</text><line x1="1388.0" y1="126.0" x2="1388.0" y2="312.0" stroke="#e2e8f0" stroke-width="1" /><text x="1390.0" y="140.0" font-family="Helvetica, Arial, sans-serif" font-size="11" fill="#64748b">22</text><line x1="1406.0" y1="126.0" x2="1406.0" y2="312.0" stroke="#e2e8f0" stroke-width="1" /><text x="1408.0" y="140.0" font-family="Helvetica, Arial, sans-serif" font-size="11" fill="#64748b">23</text><line x1="1424.0" y1="126.0" x2="1424.0" y2="312.0" stroke="#cbd5e1" stroke-width="1" /><text x="758.0" y="134.0" font-family="Helvetica, Arial, sans-serif" font-size="12" fill="#0f172a">Seattle (UTC-08:00, standard 09:00-17:00)</text><rect x="992.0" y="116.0" width="432.0" height="28.0" fill="#ffffff" stroke="#cbd5e1" rx="4" /><rect x="1154.0" y="116.0" width="144.0" height="28.0" fill="#d1d5db" fill-opacity="1.0" rx="4" /><rect x="1208.0" y="119.0" width="36.0" height="22.0" fill="#fecaca" fill-opacity="0.55" stroke="#ef4444" stroke-width="1" rx="4" /><rect x="1010.0" y="120.0" width="54.0" height="20.0" fill="#2563eb" fill-opacity="0.95" stroke="#1d4ed8" stroke-width="1" rx="4" /><rect x="1118.0" y="120.0" width="54.0" height="20.0" fill="#2563eb" fill-opacity="0.95" stroke="#1d4ed8" stroke-width="1" rx="4" /><text x="758.0" y="172.0" font-family="Helvetica, Arial, sans-serif" font-size="12" fill="#0f172a">New York (UTC-05:00, standard 09:00-17:00)</text><rect x="992.0" y="154.0" width="432.0" height="28.0" fill="#ffffff" stroke="#cbd5e1" rx="4" /><rect x="1154.0" y="154.0" width="144.0" height="28.0" fill="#d1d5db" fill-opacity="1.0" rx="4" /><rect x="1208.0" y="157.0" width="36.0" height="22.0" fill="#fecaca" fill-opacity="0.55" stroke="#ef4444" stroke-width="1" rx="4" /><rect x="1064.0" y="158.0" width="54.0" height="20.0" fill="#2563eb" fill-opacity="0.95" stroke="#1d4ed8" stroke-width="1" rx="4" /><rect x="1172.0" y="158.0" width="54.0" height="20.0" fill="#2563eb" fill-opacity="0.95" stroke="#1d4ed8" stroke-width="1" rx="4" /><text x="758.0" y="210.0" font-family="Helvetica, Arial, sans-serif" font-size="12" fill="#0f172a">London (UTC+00:00, standard 09:00-17:00)</text><rect x="992.0" y="192.0" width="432.0" height="28.0" fill="#ffffff" stroke="#cbd5e1" rx="4" /><rect x="1154.0" y="192.0" width="144.0" height="28.0" fill="#d1d5db" fill-opacity="1.0" rx="4" /><rect x="1208.0" y="195.0" width="36.0" height="22.0" fill="#fecaca" fill-opacity="0.55" stroke="#ef4444" stroke-width="1" rx="4" /><rect x="1154.0" y="196.0" width="54.0" height="20.0" fill="#2563eb" fill-opacity="0.95" stroke="#1d4ed8" stroke-width="1" rx="4" /><rect x="1262.0" y="196.0" width="54.0" height="20.0" fill="#2563eb" fill-opacity="0.95" stroke="#1d4ed8" stroke-width="1" rx="4" /><text x="758.0" y="248.0" font-family="Helvetica, Arial, sans-serif" font-size="12" fill="#0f172a">Singapore (UTC+08:00, standard 09:00-17:00)</text><rect x="992.0" y="230.0" width="432.0" height="28.0" fill="#ffffff" stroke="#cbd5e1" rx="4" /><rect x="1154.0" y="230.0" width="144.0" height="28.0" fill="#d1d5db" fill-opacity="1.0" rx="4" /><rect x="1208.0" y="233.0" width="36.0" height="22.0" fill="#fecaca" fill-opacity="0.55" stroke="#ef4444" stroke-width="1" rx="4" /><rect x="992.0" y="234.0" width="36.0" height="20.0" fill="#2563eb" fill-opacity="0.95" stroke="#1d4ed8" stroke-width="1" rx="4" /><rect x="1298.0" y="234.0" width="54.0" height="20.0" fill="#2563eb" fill-opacity="0.95" stroke="#1d4ed8" stroke-width="1" rx="4" /><rect x="1406.0" y="234.0" width="18.0" height="20.0" fill="#2563eb" fill-opacity="0.95" stroke="#1d4ed8" stroke-width="1" rx="4" /><rect x="1452.0" y="72.0" width="682.0" height="260.0" rx="12" fill="#ffffff" stroke="#cbd5e1" /><text x="1468.0" y="96.0" font-family="Helvetica, Arial, sans-serif" font-size="16" font-weight="700" fill="#0f172a">Week 3</text><text x="1468.0" y="116.0" font-family="Helvetica, Arial, sans-serif" font-size="13" fill="#475569">UTC pattern: 09:00-12:00, 15:00-18:00</text><line x1="1702.0" y1="126.0" x2="1702.0" y2="312.0" stroke="#cbd5e1" stroke-width="1" /><text x="1704.0" y="140.0" font-family="Helvetica, Arial, sans-serif" font-size="11" fill="#64748b">00</text><line x1="1720.0" y1="126.0" x2="1720.0" y2="312.0" stroke="#e2e8f0" stroke-width="1" /><text x="1722.0" y="140.0" font-family="Helvetica, Arial, sans-serif" font-size="11" fill="#64748b">01</text><line x1="1738.0" y1="126.0" x2="1738.0" y2="312.0" stroke="#e2e8f0" stroke-width="1" /><text x="1740.0" y="140.0" font-family="Helvetica, Arial, sans-serif" font-size="11" fill="#64748b">02</text><line x1="1756.0" y1="126.0" x2="1756.0" y2="312.0" stroke="#cbd5e1" stroke-width="1" /><text x="1758.0" y="140.0" font-family="Helvetica, Arial, sans-serif" font-size="11" fill="#64748b">03</text><line x1="1774.0" y1="126.0" x2="1774.0" y2="312.0" stroke="#e2e8f0" stroke-width="1" /><text x="1776.0" y="140.0" font-family="Helvetica, Arial, sans-serif" font-size="11" fill="#64748b">04</text><line x1="1792.0" y1="126.0" x2="1792.0" y2="312.0" stroke="#e2e8f0" stroke-width="1" /><text x="1794.0" y="140.0" font-family="Helvetica, Arial, sans-serif" font-size="11" fill="#64748b">05</text><line x1="1810.0" y1="126.0" x2="1810.0" y2="312.0" stroke="#cbd5e1" stroke-width="1" /><text x="1812.0" y="140.0" font-family="Helvetica, Arial, sans-serif" font-size="11" fill="#64748b">06</text><line x1="1828.0" y1="126.0" x2="1828.0" y2="312.0" stroke="#e2e8f0" stroke-width="1" /><text x="1830.0" y="140.0" font-family="Helvetica, Arial, sans-serif" font-size="11" fill="#64748b">07</text><line x1="1846.0" y1="126.0" x2="1846.0" y2="312.0" stroke="#e2e8f0" stroke-width="1" /><text x="1848.0" y="140.0" font-family="Helvetica, Arial, sans-serif" font-size="11" fill="#64748b">08</text><line x1="1864.0" y1="126.0" x2="1864.0" y2="312.0" stroke="#cbd5e1" stroke-width="1" /><text x="1866.0" y="140.0" font-family="Helvetica, Arial, sans-serif" font-size="11" fill="#64748b">09</text><line x1="1882.0" y1="126.0" x2="1882.0" y2="312.0" stroke="#e2e8f0" stroke-width="1" /><text x="1884.0" y="140.0" font-family="Helvetica, Arial, sans-serif" font-size="11" fill="#64748b">10</text><line x1="1900.0" y1="126.0" x2="1900.0" y2="312.0" stroke="#e2e8f0" stroke-width="1" /><text x="1902.0" y="140.0" font-family="Helvetica, Arial, sans-serif" font-size="11" fill="#64748b">11</text><line x1="1918.0" y1="126.0" x2="1918.0" y2="312.0" stroke="#cbd5e1" stroke-width="1" /><text x="1920.0" y="140.0" font-family="Helvetica, Arial, sans-serif" font-size="11" fill="#64748b">12</text><line x1="1936.0" y1="126.0" x2="1936.0" y2="312.0" stroke="#e2e8f0" stroke-width="1" /><text x="1938.0" y="140.0" font-family="Helvetica, Arial, sans-serif" font-size="11" fill="#64748b">13</text><line x1="1954.0" y1="126.0" x2="1954.0" y2="312.0" stroke="#e2e8f0" stroke-width="1" /><text x="1956.0" y="140.0" font-family="Helvetica, Arial, sans-serif" font-size="11" fill="#64748b">14</text><line x1="1972.0" y1="126.0" x2="1972.0" y2="312.0" stroke="#cbd5e1" stroke-width="1" /><text x="1974.0" y="140.0" font-family="Helvetica, Arial, sans-serif" font-size="11" fill="#64748b">15</text><line x1="1990.0" y1="126.0" x2="1990.0" y2="312.0" stroke="#e2e8f0" stroke-width="1" /><text x="1992.0" y="140.0" font-family="Helvetica, Arial, sans-serif" font-size="11" fill="#64748b">16</text><line x1="2008.0" y1="126.0" x2="2008.0" y2="312.0" stroke="#e2e8f0" stroke-width="1" /><text x="2010.0" y="140.0" font-family="Helvetica, Arial, sans-serif" font-size="11" fill="#64748b">17</text><line x1="2026.0" y1="126.0" x2="2026.0" y2="312.0" stroke="#cbd5e1" stroke-width="1" /><text x="2028.0" y="140.0" font-family="Helvetica, Arial, sans-serif" font-size="11" fill="#64748b">18</text><line x1="2044.0" y1="126.0" x2="2044.0" y2="312.0" stroke="#e2e8f0" stroke-width="1" /><text x="2046.0" y="140.0" font-family="Helvetica, Arial, sans-serif" font-size="11" fill="#64748b">19</text><line x1="2062.0" y1="126.0" x2="2062.0" y2="312.0" stroke="#e2e8f0" stroke-width="1" /><text x="2064.0" y="140.0" font-family="Helvetica, Arial, sans-serif" font-size="11" fill="#64748b">20</text><line x1="2080.0" y1="126.0" x2="2080.0" y2="312.0" stroke="#cbd5e1" stroke-width="1" /><text x="2082.0" y="140.0" font-family="Helvetica, Arial, sans-serif" font-size="11" fill="#64748b">21</text><line x1="2098.0" y1="126.0" x2="2098.0" y2="312.0" stroke="#e2e8f0" stroke-width="1" /><text x="2100.0" y="140.0" font-family="Helvetica, Arial, sans-serif" font-size="11" fill="#64748b">22</text><line x1="2116.0" y1="126.0" x2="2116.0" y2="312.0" stroke="#e2e8f0" stroke-width="1" /><text x="2118.0" y="140.0" font-family="Helvetica, Arial, sans-serif" font-size="11" fill="#64748b">23</text><line x1="2134.0" y1="126.0" x2="2134.0" y2="312.0" stroke="#cbd5e1" stroke-width="1" /><text x="1468.0" y="134.0" font-family="Helvetica, Arial, sans-serif" font-size="12" fill="#0f172a">Seattle (UTC-08:00, standard 09:00-17:00)</text><rect x="1702.0" y="116.0" width="432.0" height="28.0" fill="#ffffff" stroke="#cbd5e1" rx="4" /><rect x="1864.0" y="116.0" width="144.0" height="28.0" fill="#d1d5db" fill-opacity="1.0" rx="4" /><rect x="1918.0" y="119.0" width="36.0" height="22.0" fill="#fecaca" fill-opacity="0.55" stroke="#ef4444" stroke-width="1" rx="4" /><rect x="1720.0" y="120.0" width="54.0" height="20.0" fill="#2563eb" fill-opacity="0.95" stroke="#1d4ed8" stroke-width="1" rx="4" /><rect x="1828.0" y="120.0" width="54.0" height="20.0" fill="#2563eb" fill-opacity="0.95" stroke="#1d4ed8" stroke-width="1" rx="4" /><text x="1468.0" y="172.0" font-family="Helvetica, Arial, sans-serif" font-size="12" fill="#0f172a">New York (UTC-05:00, standard 09:00-17:00)</text><rect x="1702.0" y="154.0" width="432.0" height="28.0" fill="#ffffff" stroke="#cbd5e1" rx="4" /><rect x="1864.0" y="154.0" width="144.0" height="28.0" fill="#d1d5db" fill-opacity="1.0" rx="4" /><rect x="1918.0" y="157.0" width="36.0" height="22.0" fill="#fecaca" fill-opacity="0.55" stroke="#ef4444" stroke-width="1" rx="4" /><rect x="1774.0" y="158.0" width="54.0" height="20.0" fill="#2563eb" fill-opacity="0.95" stroke="#1d4ed8" stroke-width="1" rx="4" /><rect x="1882.0" y="158.0" width="54.0" height="20.0" fill="#2563eb" fill-opacity="0.95" stroke="#1d4ed8" stroke-width="1" rx="4" /><text x="1468.0" y="210.0" font-family="Helvetica, Arial, sans-serif" font-size="12" fill="#0f172a">London (UTC+00:00, standard 09:00-17:00)</text><rect x="1702.0" y="192.0" width="432.0" height="28.0" fill="#ffffff" stroke="#cbd5e1" rx="4" /><rect x="1864.0" y="192.0" width="144.0" height="28.0" fill="#d1d5db" fill-opacity="1.0" rx="4" /><rect x="1918.0" y="195.0" width="36.0" height="22.0" fill="#fecaca" fill-opacity="0.55" stroke="#ef4444" stroke-width="1" rx="4" /><rect x="1864.0" y="196.0" width="54.0" height="20.0" fill="#2563eb" fill-opacity="0.95" stroke="#1d4ed8" stroke-width="1" rx="4" /><rect x="1972.0" y="196.0" width="54.0" height="20.0" fill="#2563eb" fill-opacity="0.95" stroke="#1d4ed8" stroke-width="1" rx="4" /><text x="1468.0" y="248.0" font-family="Helvetica, Arial, sans-serif" font-size="12" fill="#0f172a">Singapore (UTC+08:00, standard 09:00-17:00)</text><rect x="1702.0" y="230.0" width="432.0" height="28.0" fill="#ffffff" stroke="#cbd5e1" rx="4" /><rect x="1864.0" y="230.0" width="144.0" height="28.0" fill="#d1d5db" fill-opacity="1.0" rx="4" /><rect x="1918.0" y="233.0" width="36.0" height="22.0" fill="#fecaca" fill-opacity="0.55" stroke="#ef4444" stroke-width="1" rx="4" /><rect x="1702.0" y="234.0" width="36.0" height="20.0" fill="#2563eb" fill-opacity="0.95" stroke="#1d4ed8" stroke-width="1" rx="4" /><rect x="2008.0" y="234.0" width="54.0" height="20.0" fill="#2563eb" fill-opacity="0.95" stroke="#1d4ed8" stroke-width="1" rx="4" /><rect x="2116.0" y="234.0" width="18.0" height="20.0" fill="#2563eb" fill-opacity="0.95" stroke="#1d4ed8" stroke-width="1" rx="4" /><rect x="32.0" y="302.0" width="14" height="14" fill="#d1d5db" rx="3" /><text x="52.0" y="314.0" font-family="Helvetica, Arial, sans-serif" font-size="12" fill="#475569">Standard hours</text><rect x="172.0" y="302.0" width="14" height="14" fill="#fecaca" stroke="#ef4444" rx="3" /><text x="192.0" y="314.0" font-family="Helvetica, Arial, sans-serif" font-size="12" fill="#475569">Protected windows</text><rect x="342.0" y="302.0" width="14" height="14" fill="#2563eb" stroke="#1d4ed8" rx="3" /><text x="362.0" y="314.0" font-family="Helvetica, Arial, sans-serif" font-size="12" fill="#475569">Recommended overlap</text></svg>